<svg width="256" height="256" viewBox="0 0 32 32" fill="none" xmlns="http://www.w3.org/2000/svg">
<path d="M26.9989 16.5938V8.73212C15.8934 13.0728 11.7999 16.3909 12.8557 26.7744C12.9182 27.3886 13.283 27.9388 13.8467 28.1903C14.6728 28.5587 15.4169 28.7603 15.9992 28.7603C19.142 28.7603 26.9989 22.89 26.9989 16.5938Z" fill="url(#paint0_linear_76780_14493)"/>
<path d="M26.9989 16.5938V8.73212C15.8934 13.0728 11.7999 16.3909 12.8557 26.7744C12.9182 27.3886 13.283 27.9388 13.8467 28.1903C14.6728 28.5587 15.4169 28.7603 15.9992 28.7603C19.142 28.7603 26.9989 22.89 26.9989 16.5938Z" fill="url(#paint1_radial_76780_14493)" fill-opacity="0.6"/>
<path d="M16.0004 4C18.1156 4 22.3659 5.06944 24.9194 5.76883C25.158 5.83419 25.3818 5.89753 25.5877 5.95723C26.4368 6.2034 27.0001 6.98858 27.0001 7.8726V9.17281C26.7478 14.9651 24.8916 16.65 19.7108 20.8216C19.0304 21.4237 18.3311 21.9964 17.6211 22.5779C16.6038 23.4111 15.5646 24.2622 14.5279 25.2432C14.132 25.6178 13.885 26.1482 13.885 26.7362C13.885 27.6199 14.4427 28.3733 15.2254 28.6636C15.0345 28.621 14.834 28.5643 14.6255 28.4945C12.7308 27.8594 10.1729 26.1294 8.17036 23.832C6.59151 13.9944 9.6861 9.17281 16.0004 4Z" fill="url(#paint2_radial_76780_14493)"/>
<path d="M16.0004 4C18.1156 4 22.3659 5.06944 24.9194 5.76883C25.158 5.83419 25.3818 5.89753 25.5877 5.95723C26.4368 6.2034 27.0001 6.98858 27.0001 7.8726V9.17281C26.7478 14.9651 24.8916 16.65 19.7108 20.8216C19.0304 21.4237 18.3311 21.9964 17.6211 22.5779C16.6038 23.4111 15.5646 24.2622 14.5279 25.2432C14.132 25.6178 13.885 26.1482 13.885 26.7362C13.885 27.6199 14.4427 28.3733 15.2254 28.6636C15.0345 28.621 14.834 28.5643 14.6255 28.4945C12.7308 27.8594 10.1729 26.1294 8.17036 23.832C6.59151 13.9944 9.6861 9.17281 16.0004 4Z" fill="url(#paint3_radial_76780_14493)" fill-opacity="0.7"/>
<path d="M16.0004 4C18.1156 4 22.3659 5.06944 24.9194 5.76883C25.158 5.83419 25.3818 5.89753 25.5877 5.95723C26.4368 6.2034 27.0001 6.98858 27.0001 7.8726V9.17281C26.7478 14.9651 24.8916 16.65 19.7108 20.8216C19.0304 21.4237 18.3311 21.9964 17.6211 22.5779C16.6038 23.4111 15.5646 24.2622 14.5279 25.2432C14.132 25.6178 13.885 26.1482 13.885 26.7362C13.885 27.6199 14.4427 28.3733 15.2254 28.6636C15.0345 28.621 14.834 28.5643 14.6255 28.4945C12.7308 27.8594 10.1729 26.1294 8.17036 23.832C6.59151 13.9944 9.6861 9.17281 16.0004 4Z" fill="url(#paint4_radial_76780_14493)" fill-opacity="0.7"/>
<path d="M16.0004 4C18.1156 4 22.3659 5.06944 24.9194 5.76883C25.158 5.83419 25.3818 5.89753 25.5877 5.95723C26.4368 6.2034 27.0001 6.98858 27.0001 7.8726V9.17281C26.7478 14.9651 24.8916 16.65 19.7108 20.8216C19.0304 21.4237 18.3311 21.9964 17.6211 22.5779C16.6038 23.4111 15.5646 24.2622 14.5279 25.2432C14.132 25.6178 13.885 26.1482 13.885 26.7362C13.885 27.6199 14.4427 28.3733 15.2254 28.6636C15.0345 28.621 14.834 28.5643 14.6255 28.4945C12.7308 27.8594 10.1729 26.1294 8.17036 23.832C6.59151 13.9944 9.6861 9.17281 16.0004 4Z" fill="url(#paint5_radial_76780_14493)" fill-opacity="0.5"/>
<path d="M6.47184 5.93739C8.90035 5.25789 13.7058 4 15.9997 4C16.1649 4 16.3431 4.00668 16.5325 4.01934C18.6294 4.22179 20.2687 5.98887 20.2687 8.13882C20.2687 8.91946 20.0526 9.64961 19.6769 10.2727C18.8738 11.873 17.5595 13.1307 15.5592 14.7774C14.9846 15.2505 14.3258 15.7726 13.669 16.2931C13.0484 16.7851 12.4294 17.2756 11.8851 17.7219C10.5628 18.806 9.75469 19.4687 9.31023 20.3002C8.88705 20.9493 8.64114 21.7246 8.64114 22.5573C8.64114 23.7764 9.16823 24.8724 10.007 25.6298C10.0336 25.6597 10.0606 25.6888 10.0878 25.7172C10.0952 25.7281 10.1024 25.7389 10.1095 25.7498C9.8434 25.5222 9.57998 25.2843 9.3213 25.0368C6.96423 22.7822 5 19.7406 5 16.5925V7.89441L5 7.89397C5.00019 6.98315 5.59467 6.18283 6.47184 5.93739Z" fill="url(#paint6_radial_76780_14493)"/>
<path d="M6.47184 5.93739C8.90035 5.25789 13.7058 4 15.9997 4C16.1649 4 16.3431 4.00668 16.5325 4.01934C18.6294 4.22179 20.2687 5.98887 20.2687 8.13882C20.2687 8.91946 20.0526 9.64961 19.6769 10.2727C18.8738 11.873 17.5595 13.1307 15.5592 14.7774C14.9846 15.2505 14.3258 15.7726 13.669 16.2931C13.0484 16.7851 12.4294 17.2756 11.8851 17.7219C10.5628 18.806 9.75469 19.4687 9.31023 20.3002C8.88705 20.9493 8.64114 21.7246 8.64114 22.5573C8.64114 23.7764 9.16823 24.8724 10.007 25.6298C10.0336 25.6597 10.0606 25.6888 10.0878 25.7172C10.0952 25.7281 10.1024 25.7389 10.1095 25.7498C9.8434 25.5222 9.57998 25.2843 9.3213 25.0368C6.96423 22.7822 5 19.7406 5 16.5925V7.89441L5 7.89397C5.00019 6.98315 5.59467 6.18283 6.47184 5.93739Z" fill="url(#paint7_linear_76780_14493)" fill-opacity="0.8"/>
<path d="M6.47184 5.93739C8.90035 5.25789 13.7058 4 15.9997 4C16.1649 4 16.3431 4.00668 16.5325 4.01934C18.6294 4.22179 20.2687 5.98887 20.2687 8.13882C20.2687 8.91946 20.0526 9.64961 19.6769 10.2727C18.8738 11.873 17.5595 13.1307 15.5592 14.7774C14.9846 15.2505 14.3258 15.7726 13.669 16.2931C13.0484 16.7851 12.4294 17.2756 11.8851 17.7219C10.5628 18.806 9.75469 19.4687 9.31023 20.3002C8.88705 20.9493 8.64114 21.7246 8.64114 22.5573C8.64114 23.7764 9.16823 24.8724 10.007 25.6298C10.0336 25.6597 10.0606 25.6888 10.0878 25.7172C10.0952 25.7281 10.1024 25.7389 10.1095 25.7498C9.8434 25.5222 9.57998 25.2843 9.3213 25.0368C6.96423 22.7822 5 19.7406 5 16.5925V7.89441L5 7.89397C5.00019 6.98315 5.59467 6.18283 6.47184 5.93739Z" fill="url(#paint8_radial_76780_14493)" fill-opacity="0.5"/>
<defs>
<linearGradient id="paint0_linear_76780_14493" x1="25.8689" y1="15.9298" x2="11.2579" y2="27.6403" gradientUnits="userSpaceOnUse">
<stop offset="0.716383" stop-color="#143DE0"/>
<stop offset="0.97828" stop-color="#003375"/>
</linearGradient>
<radialGradient id="paint1_radial_76780_14493" cx="0" cy="0" r="1" gradientUnits="userSpaceOnUse" gradientTransform="translate(17.6802 18.7462) rotate(50.2873) scale(13.0178 38.9178)">
<stop offset="0.227837" stop-color="#003375"/>
<stop offset="0.434167" stop-color="#003375" stop-opacity="0.1"/>
</radialGradient>
<radialGradient id="paint2_radial_76780_14493" cx="0" cy="0" r="1" gradientUnits="userSpaceOnUse" gradientTransform="translate(27.7188 -2.728) rotate(119.584) scale(41.5991 26.7394)">
<stop offset="0.165327" stop-color="#23C0FE"/>
<stop offset="0.534" stop-color="#1C91FF"/>
</radialGradient>
<radialGradient id="paint3_radial_76780_14493" cx="0" cy="0" r="1" gradientUnits="userSpaceOnUse" gradientTransform="translate(13.5802 12.1803) rotate(43.3814) scale(6.92671 12.3252)">
<stop offset="0.143522" stop-color="#1B44B1"/>
<stop offset="1" stop-color="#045ED1" stop-opacity="0"/>
</radialGradient>
<radialGradient id="paint4_radial_76780_14493" cx="0" cy="0" r="1" gradientUnits="userSpaceOnUse" gradientTransform="translate(24.0004 17.4116) rotate(28.8933) scale(15.6127 22.8843)">
<stop offset="0.727798" stop-color="#045ED1" stop-opacity="0"/>
<stop offset="0.951239" stop-color="#1B44B1"/>
</radialGradient>
<radialGradient id="paint5_radial_76780_14493" cx="0" cy="0" r="1" gradientUnits="userSpaceOnUse" gradientTransform="translate(18.3248 10.8894) rotate(-111.097) scale(25.2889 19.3306)">
<stop offset="0.642036" stop-color="#11A7FF" stop-opacity="0"/>
<stop offset="0.796268" stop-color="#6AB3FF"/>
</radialGradient>
<radialGradient id="paint6_radial_76780_14493" cx="0" cy="0" r="1" gradientUnits="userSpaceOnUse" gradientTransform="translate(20.2687 2.82575) rotate(126.615) scale(30.357 33.8993)">
<stop stop-color="#92EEFE"/>
<stop offset="0.212749" stop-color="#35DDFF"/>
<stop offset="0.612478" stop-color="#15BDFB"/>
<stop offset="0.802844" stop-color="#08B1F9"/>
</radialGradient>
<linearGradient id="paint7_linear_76780_14493" x1="13.2289" y1="12.6371" x2="5" y2="12.6371" gradientUnits="userSpaceOnUse">
<stop offset="0.110619" stop-color="#22CBFD" stop-opacity="0"/>
<stop offset="0.97092" stop-color="#92DEFF"/>
</linearGradient>
<radialGradient id="paint8_radial_76780_14493" cx="0" cy="0" r="1" gradientUnits="userSpaceOnUse" gradientTransform="translate(14.3189 7.53969) rotate(-87.7233) scale(23.8311 12.6467)">
<stop offset="0.657787" stop-color="#92DEFF" stop-opacity="0"/>
<stop offset="0.852025" stop-color="#92DEFF"/>
</radialGradient>
</defs>
</svg>
