<svg height="256" width="256" viewBox="0 0 32 32" fill="none" xmlns="http://www.w3.org/2000/svg">
<path d="M30.9844 22.0755L22.3837 7.17529C23.3868 9.49096 23.8091 11.9655 23.6825 14.4004L22.195 14.2897C22.195 14.2897 23.18 14.596 23.3976 15.0662C24.0755 16.5052 21.8295 21.2474 21.0534 22.4113C19.7944 24.2996 17.357 26.7334 16.7207 26.7334C16.522 26.7334 16.437 26.6638 16.437 26.6638C14.1249 28.0942 11.3946 29.494 8.58905 29.6668H26.6026C30.4975 29.6668 32.9319 25.4494 30.9844 22.0755Z" fill="url(#paint0_linear_2109_3744)"/>
<path d="M30.9844 22.0755L22.3837 7.17529C23.3868 9.49096 23.8091 11.9655 23.6825 14.4004L22.195 14.2897C22.195 14.2897 23.18 14.596 23.3976 15.0662C24.0755 16.5052 21.8295 21.2474 21.0534 22.4113C19.7944 24.2996 17.357 26.7334 16.7207 26.7334C16.522 26.7334 16.437 26.6638 16.437 26.6638C14.1249 28.0942 11.3946 29.494 8.58905 29.6668H26.6026C30.4975 29.6668 32.9319 25.4494 30.9844 22.0755Z" fill="url(#paint1_radial_2109_3744)" fill-opacity="0.5"/>
<path d="M30.9844 22.0755L22.3837 7.17529C23.3868 9.49096 23.8091 11.9655 23.6825 14.4004L22.195 14.2897C22.195 14.2897 23.18 14.596 23.3976 15.0662C24.0755 16.5052 21.8295 21.2474 21.0534 22.4113C19.7944 24.2996 17.357 26.7334 16.7207 26.7334C16.522 26.7334 16.437 26.6638 16.437 26.6638C14.1249 28.0942 11.3946 29.494 8.58905 29.6668H26.6026C30.4975 29.6668 32.9319 25.4494 30.9844 22.0755Z" fill="url(#paint2_radial_2109_3744)" fill-opacity="0.2"/>
<path d="M29.7227 20.0202C29.8989 20.2638 30.0673 20.5106 30.2279 20.7605L21.0519 4.86367C19.1044 1.48977 14.2357 1.48978 12.2882 4.86368L3.26801 20.4906C4.65257 18.424 7.68563 16.8683 9.88127 15.7863C9.88127 15.7863 9.80521 15.3258 9.98489 15.0076C10.1646 14.6895 10.4113 14.602 10.6483 14.5065C17.3579 11.8029 25.2922 13.8939 29.7227 20.0202Z" fill="url(#paint3_radial_2109_3744)"/>
<path d="M29.7227 20.0202C29.8989 20.2638 30.0673 20.5106 30.2279 20.7605L21.0519 4.86367C19.1044 1.48977 14.2357 1.48978 12.2882 4.86368L3.26801 20.4906C4.65257 18.424 7.68563 16.8683 9.88127 15.7863C9.88127 15.7863 9.80521 15.3258 9.98489 15.0076C10.1646 14.6895 10.4113 14.602 10.6483 14.5065C17.3579 11.8029 25.2922 13.8939 29.7227 20.0202Z" fill="url(#paint4_radial_2109_3744)" fill-opacity="0.36"/>
<path d="M24.8325 29.6635H6.73707C2.8421 29.6635 0.407736 25.4462 2.35522 22.0723L11.5241 6.18774C8.83663 11.4167 9.11574 17.9324 12.7968 23.0222C15.7302 27.0784 20.1996 29.3657 24.8325 29.6635Z" fill="url(#paint5_linear_2109_3744)"/>
<path d="M24.8325 29.6635H6.73707C2.8421 29.6635 0.407736 25.4462 2.35522 22.0723L11.5241 6.18774C8.83663 11.4167 9.11574 17.9324 12.7968 23.0222C15.7302 27.0784 20.1996 29.3657 24.8325 29.6635Z" fill="url(#paint6_radial_2109_3744)" fill-opacity="0.25"/>
<path d="M24.8325 29.6635H6.73707C2.8421 29.6635 0.407736 25.4462 2.35522 22.0723L11.5241 6.18774C8.83663 11.4167 9.11574 17.9324 12.7968 23.0222C15.7302 27.0784 20.1996 29.3657 24.8325 29.6635Z" fill="url(#paint7_linear_2109_3744)"/>
<defs>
<linearGradient id="paint0_linear_2109_3744" x1="28.5669" y1="8.71858" x2="29.1327" y2="25.6021" gradientUnits="userSpaceOnUse">
<stop stop-color="#033E9A"/>
<stop offset="1" stop-color="#0055C6"/>
</linearGradient>
<radialGradient id="paint1_radial_2109_3744" cx="0" cy="0" r="1" gradientUnits="userSpaceOnUse" gradientTransform="translate(25.1549 14.8316) rotate(87.4552) scale(6.40371 5.9066)">
<stop stop-color="#041642"/>
<stop offset="1" stop-color="#041642" stop-opacity="0"/>
</radialGradient>
<radialGradient id="paint2_radial_2109_3744" cx="0" cy="0" r="1" gradientUnits="userSpaceOnUse" gradientTransform="translate(17.5562 28.2808) rotate(-23.6656) scale(12.2581 13.9471)">
<stop/>
<stop offset="1" stop-opacity="0"/>
</radialGradient>
<radialGradient id="paint3_radial_2109_3744" cx="0" cy="0" r="1" gradientUnits="userSpaceOnUse" gradientTransform="translate(18.4237 1.80437) rotate(119.825) scale(12.3335 20.2649)">
<stop stop-color="#51DEFF"/>
<stop offset="0.348958" stop-color="#1ABAFD"/>
<stop offset="1" stop-color="#247FE0"/>
</radialGradient>
<radialGradient id="paint4_radial_2109_3744" cx="0" cy="0" r="1" gradientUnits="userSpaceOnUse" gradientTransform="translate(-1.37758 22.6751) rotate(-39.2489) scale(19.1883 12.5573)">
<stop offset="0.47515"/>
<stop offset="1" stop-opacity="0"/>
</radialGradient>
<linearGradient id="paint5_linear_2109_3744" x1="8.46382" y1="10.5549" x2="16.0828" y2="30.6907" gradientUnits="userSpaceOnUse">
<stop stop-color="#59E7FD"/>
<stop offset="0.58722" stop-color="#23D4F9"/>
<stop offset="1" stop-color="#32BBF2"/>
</linearGradient>
<radialGradient id="paint6_radial_2109_3744" cx="0" cy="0" r="1" gradientUnits="userSpaceOnUse" gradientTransform="translate(9.81273 13.9396) rotate(98.7492) scale(5.24585 7.69284)">
<stop offset="0.177241" stop-color="#CCF9FF"/>
<stop offset="1" stop-color="#4FE3FF" stop-opacity="0.12"/>
</radialGradient>
<linearGradient id="paint7_linear_2109_3744" x1="13.8813" y1="28.6728" x2="10.4876" y2="20.6058" gradientUnits="userSpaceOnUse">
<stop stop-color="#08B0F8"/>
<stop offset="1" stop-color="#52E5FF" stop-opacity="0"/>
</linearGradient>
</defs>
</svg>